<?xml version="1.0" encoding="iso-8859-1"?>
<!-- Uploaded to: SVG Repo, www.svgrepo.com, Generator: SVG Repo Mixer Tools -->
<svg height="800px" width="800px" version="1.1" id="Capa_1" xmlns="http://www.w3.org/2000/svg" xmlns:xlink="http://www.w3.org/1999/xlink" 
	 viewBox="0 0 47.12 47.12" xml:space="preserve">
<g>
	<path style="fill:#1D1C1A;" d="M44.994,25.035c-0.087,0.029-0.176,0.057-0.268,0.084c-2.286,0.676-4.274,0.137-4.274-0.296
		c0-0.433,1.296-0.87,2.583-1.697s1.859-1.517,1.919-0.896c0.06,0.621,0.862,1.217,1.717,0.908
		C47.526,22.829,47.258,24.286,44.994,25.035z M37.61,40.319c-0.774-0.172-1.14-0.518-1.463-0.583
		c-0.243-0.048-0.438-0.266-0.488-0.485c-0.089-0.39,0.966-0.551,1.571-0.885c0.604-0.334-0.454-0.526-1.928-0.833
		s-2.808-1.038-3.31-0.732c-0.502,0.306,0.213,2.313,2.201,3.496c1.989,1.182,4.432,0.777,4.927,0.643
		C39.614,40.805,38.462,40.508,37.61,40.319z M39.571,23.259C38.69,35.393,29.296,36.763,25.676,37.644
		c-2.467,0.6-4.934,1.836-6.194,4.235c-0.856,1.632-2.115,3.164-3.559,3.164c-0.423,0-0.863-0.132-1.313-0.432
		c-6.854-4.572-7.168-18.067-7.252-19.827c-0.097-2.055-3.111-5.536-4.285-6.417c-0.746-0.56-1.114-0.709-1.961-0.995
		c-1.158-0.39-1.446-1.17-0.702-1.782c0.472-0.389,0.92-0.845,1.097-1.333c1.859-5.088,7.339-7.535,9.59-7.829
		c0.809-0.106,1.68-0.134,2.597-0.134c1.048,0,2.156,0.037,3.301,0.037c0.643,0,1.297-0.012,1.959-0.048
		c2.872-0.157,4.179-2.301,7.506-3.182c2.244-0.609,4.429-1.025,6.544-1.025c2.057,0,4.048,0.394,5.961,1.389
		c2.115,1.1,1.907,3.78,0.44,5.659c-0.964,1.234-1.807,2.686-1.888,4.055C37.321,16.506,39.572,20.127,39.571,23.259z
		 M10.919,12.807c0-0.972-0.787-1.761-1.761-1.761c-0.973,0-1.761,0.789-1.761,1.761s0.787,1.761,1.761,1.761
		S10.919,13.779,10.919,12.807z M35.054,22.427c-0.121-0.973-0.399-1.4-0.694-1.4c-0.422,0-0.881,0.875-0.965,2.276
		c-0.021,0.352-0.07,0.689-0.125,1.022c-0.01,0.065-0.012,0.136-0.024,0.2c-0.112,0.602-0.29,1.16-0.497,1.695
		c-0.064,0.165-0.119,0.338-0.19,0.496c-0.017,0.037-0.039,0.07-0.056,0.107c-0.138,0.296-0.284,0.585-0.446,0.857
		c-0.003,0.005-0.006,0.008-0.009,0.013c-0.18,0.301-0.372,0.589-0.575,0.86c-0.049,0.065-0.103,0.121-0.153,0.184
		c-0.161,0.205-0.323,0.409-0.495,0.596c-0.027,0.029-0.057,0.053-0.084,0.082c-0.199,0.212-0.402,0.416-0.61,0.602
		c-0.114,0.102-0.232,0.188-0.348,0.283c-0.124,0.101-0.248,0.211-0.374,0.304c-1.383,1.017-1.821,1.766-1.134,1.766
		c0.2,0,0.495-0.064,0.891-0.203c0.132-0.047,0.275-0.101,0.429-0.165c2.339-0.965,4.224-3.271,4.79-4.341
		C34.874,26.739,35.302,24.433,35.054,22.427z"/>
</g>
</svg>