<?xml version="1.0" encoding="iso-8859-1"?>
<!-- Uploaded to: SVG Repo, www.svgrepo.com, Generator: SVG Repo Mixer Tools -->
<!DOCTYPE svg PUBLIC "-//W3C//DTD SVG 1.1//EN" "http://www.w3.org/Graphics/SVG/1.1/DTD/svg11.dtd">
<svg fill="#000000" version="1.1" id="Capa_1" xmlns="http://www.w3.org/2000/svg" xmlns:xlink="http://www.w3.org/1999/xlink" 
	 width="800px" height="800px" viewBox="0 0 332.448 332.447"
	 xml:space="preserve">
<g>
	<g>
		<g id="Layer_5_16_">
			<g>
				<g>
					<path d="M86.699,329.519c-1.138,2.503-4.117,3.621-6.62,2.482l-5.67-2.574c-2.504-1.139-3.621-4.117-2.483-6.621l16.111-35.465
						c1.138-2.504,4.117-3.621,6.621-2.483l5.669,2.575c2.504,1.139,3.622,4.117,2.484,6.619L86.699,329.519z"/>
				</g>
				<path d="M327.675,210.544L227.682,51.818c-0.483-0.768-6.056-3.271-7.674-4.01c-4.897-2.225-14.692-6.676-19.592-8.899
					c-1.437-0.652-7.231-3.408-8.428-3.089L7.018,64.869c-3.691,0.58-4.23,2.842-1.197,5.024c0,0,26.908,19.564,85.696,49.926
					c0,0,0.978,0.453,1.66,1.82c8.658,17.359,34.953,68.785,34.953,68.785c1.744,3.433,2.792,5.539,2.804,5.541
					c0,0,0.373,0.729-0.24,2.158c-7.852,18.305-32.7,71.975-32.7,71.975c-0.91,2.002-0.016,4.388,1.987,5.295l3.366,1.529
					c2.003,0.91,4.387,0.017,5.296-1.986l33.019-71.831c0.463-1.048,2.459-1.724,4.467-2.095
					c0.748-0.139,81.057-18.662,81.057-18.662c0.853-0.186,1.396,0.041,1.688,0.156c64.893,25.953,95.77,32.402,95.77,32.402
					C328.302,215.669,329.667,213.706,327.675,210.544z M129.127,169.886l-20.763-40.863c0,0-0.374-0.812,0.549-0.36
					c7.968,3.896,15.425,7.616,24.262,11.836c0.276,0.131,0.771,0.655,0.771,1.662l-1.309,26.975
					C132.451,172.979,130.871,173.317,129.127,169.886z M142.264,181.054c0,0,1.073-25.682,1.66-34.229
					c0.092-1.339,0.887-0.839,0.887-0.839c5.295,2.476,9.912,4.603,15.525,7.15c5.66,2.572,10.088,4.561,15.444,6.932
					c0,0,1.152,0.418,0.356,1.041c-7.198,5.625-28.714,22.605-28.714,22.605C144.399,186.097,142.078,184.899,142.264,181.054z
					 M164.808,186.74c-3.745,0.893-4.334-0.326-1.309-2.707c0,0,17.501-13.783,23.339-18.375c0.669-0.525,1.214-0.203,1.214-0.203
					c8.525,3.707,14.546,6.16,22.214,9.453c1.544,0.664,0.297,0.926,0.297,0.926L164.808,186.74z"/>
				<path d="M227.76,34.556c1.134,0.517,1.896-0.067,1.696-1.299l-1.3-7.967c-0.199-1.23,0.585-2.607,1.746-3.06
					c0,0,5.287-2.061,7.018-5.866c2.644-5.818,0.067-12.681-5.75-15.324c-5.82-2.646-12.684-0.07-15.326,5.75
					c-1.729,3.805,0.195,9.143,0.195,9.143c0.425,1.172-0.097,2.67-1.152,3.326l-6.855,4.264c-1.059,0.658-0.996,1.619,0.14,2.136
					L227.76,34.556z"/>
			</g>
		</g>
	</g>
</g>
</svg>