<?xml version="1.0" encoding="iso-8859-1"?>
<!-- Uploaded to: SVG Repo, www.svgrepo.com, Generator: SVG Repo Mixer Tools -->
<svg height="800px" width="800px" version="1.1" id="Capa_1" xmlns="http://www.w3.org/2000/svg" xmlns:xlink="http://www.w3.org/1999/xlink" 
	 viewBox="0 0 50.988 50.988" xml:space="preserve">
<g>
	<path style="fill:#1D1C1A;" d="M17.639,18.057l-0.11,9.686c4.23-2.959,9.424-5.955,15.511-8.315l1.364-9.644
		c-4.034,1.304-8.197,2.951-11.055,4.622C21.325,15.589,19.404,16.82,17.639,18.057z M32.329,18.931c-0.011,0-0.022,0-0.034-0.001
		c-0.288-0.018-0.504-0.271-0.484-0.56c0.024-0.278,0.257-0.489,0.531-0.489c0.011,0,0.022,0,0.033,0.001
		c0.289,0.023,0.504,0.272,0.482,0.56C32.837,18.72,32.603,18.931,32.329,18.931z M32.47,17.109c-0.014,0-0.027,0-0.041-0.002
		c-0.288-0.022-0.503-0.274-0.484-0.562c0.023-0.275,0.253-0.485,0.525-0.485c0.013,0,0.026,0,0.04,0.002
		c0.289,0.022,0.505,0.275,0.482,0.563C32.971,16.9,32.742,17.109,32.47,17.109z M32.605,15.287c-0.014,0-0.028-0.001-0.042-0.002
		c-0.289-0.022-0.505-0.274-0.483-0.562c0.022-0.276,0.252-0.484,0.523-0.484c0.013,0,0.027,0,0.041,0.002
		c0.289,0.022,0.505,0.274,0.482,0.563C33.106,15.079,32.876,15.287,32.605,15.287z M33.26,12.983
		c-0.021,0.274-0.249,0.483-0.52,0.483c-0.014,0-0.028-0.001-0.042-0.002c-0.289-0.021-0.505-0.274-0.482-0.562
		c0.021-0.276,0.251-0.485,0.523-0.485c0.013,0,0.026,0,0.04,0.001C33.067,12.442,33.282,12.694,33.26,12.983z M32.371,10.951
		c0.013,0,0.027,0,0.041,0.002c0.289,0.022,0.504,0.274,0.483,0.563C32.873,11.791,32.644,12,32.372,12
		c-0.014,0-0.028-0.001-0.041-0.002c-0.289-0.021-0.506-0.274-0.48-0.563C31.868,11.161,32.099,10.951,32.371,10.951z
		 M31.344,12.756c0.014,0,0.028,0.001,0.042,0.002c0.29,0.022,0.505,0.274,0.479,0.563c-0.017,0.275-0.247,0.484-0.52,0.484
		c-0.013,0-0.027,0-0.041-0.002c-0.289-0.022-0.506-0.274-0.479-0.564C30.842,12.965,31.072,12.756,31.344,12.756z M31.199,14.655
		c0.014,0,0.028,0.001,0.042,0.002c0.29,0.021,0.506,0.274,0.488,0.563c-0.026,0.275-0.256,0.484-0.528,0.484
		c-0.013,0-0.027,0-0.041-0.002c-0.283-0.022-0.498-0.274-0.479-0.563C30.704,14.864,30.928,14.655,31.199,14.655z M31.064,16.557
		c0.014,0,0.028,0.001,0.043,0.002c0.29,0.021,0.504,0.274,0.479,0.562c-0.019,0.275-0.243,0.482-0.511,0.482
		c-0.017,0-0.033-0.001-0.05-0.002c-0.289-0.023-0.506-0.272-0.483-0.56C30.563,16.766,30.793,16.557,31.064,16.557z M30.927,18.454
		c0.011,0,0.022,0,0.034,0.001c0.29,0.028,0.506,0.272,0.488,0.56c-0.025,0.278-0.259,0.489-0.535,0.489
		c-0.011,0-0.022,0-0.034-0.001c-0.289-0.018-0.502-0.271-0.479-0.56C30.42,18.665,30.653,18.454,30.927,18.454z M33.929,19.092
		l1.356-9.587c0.288-0.091,0.575-0.179,0.86-0.265l-1.348,9.535C34.506,18.879,34.217,18.985,33.929,19.092z M50.987,16.34
		c0.026,0.261-0.737,0.548-1.699,0.669C25.737,19.969,10.715,34.797,6.604,39.35c-0.568,0.629-1.126,1.079-1.374,1.079
		c-0.036,0-0.065-0.01-0.087-0.029c-0.175-0.154,0.176-0.892,0.823-1.615c4.124-4.61,19.295-19.723,43.229-22.723
		c0.241-0.03,0.472-0.044,0.683-0.044C50.511,16.018,50.967,16.144,50.987,16.34z M15.754,19.425
		c0.342-0.257,0.69-0.514,1.046-0.772l-0.11,9.685c-0.356,0.256-0.704,0.512-1.046,0.766L15.754,19.425z M35.68,18.463l1.342-9.484
		c3.302-0.96,6.286-1.624,8.086-1.796l-1.661,9.132C40.729,16.895,38.137,17.623,35.68,18.463z M35.481,21.039
		c-3.149,1.125-6.065,2.43-8.739,3.827c0.739,0.624,1.477,1.264,2.211,1.938l9.855-2.37C37.725,23.265,36.601,22.114,35.481,21.039z
		 M28.754,25.173c-0.05,0.015-0.101,0.022-0.151,0.022c-0.228,0-0.439-0.145-0.512-0.371c-0.089-0.276,0.067-0.567,0.345-0.651
		c0.053-0.017,0.107-0.025,0.159-0.025c0.222,0,0.428,0.143,0.5,0.366C29.176,24.793,29.028,25.083,28.754,25.173z M29.805,26.271
		c-0.052,0.016-0.105,0.024-0.157,0.024c-0.224,0-0.432-0.144-0.504-0.368c-0.089-0.275,0.067-0.568,0.343-0.656
		c0.051-0.015,0.103-0.023,0.154-0.023c0.226,0,0.435,0.144,0.508,0.368C30.233,25.894,30.081,26.187,29.805,26.271z M30.566,24.602
		c-0.054,0.017-0.108,0.026-0.161,0.026c-0.223,0-0.426-0.144-0.491-0.37c-0.085-0.278,0.067-0.57,0.343-0.656
		c0.052-0.016,0.104-0.024,0.155-0.024c0.224,0,0.432,0.145,0.501,0.371C30.999,24.227,30.843,24.519,30.566,24.602z M31.543,25.727
		c-0.052,0.016-0.104,0.024-0.156,0.024c-0.223,0-0.43-0.144-0.499-0.37c-0.086-0.276,0.069-0.569,0.345-0.657
		c0.051-0.015,0.103-0.023,0.153-0.023c0.225,0,0.434,0.144,0.504,0.37C31.975,25.348,31.82,25.643,31.543,25.727z M32.386,24.037
		c-0.05,0.015-0.1,0.022-0.15,0.022c-0.227,0-0.437-0.145-0.508-0.373c-0.084-0.272,0.071-0.564,0.347-0.653
		c0.052-0.016,0.105-0.023,0.156-0.023c0.224,0,0.429,0.142,0.499,0.367C32.816,23.654,32.661,23.948,32.386,24.037z M33.286,25.183
		c-0.052,0.016-0.104,0.024-0.156,0.024c-0.223,0-0.43-0.144-0.5-0.369c-0.086-0.276,0.07-0.569,0.346-0.656
		c0.051-0.016,0.103-0.023,0.154-0.023c0.224,0,0.432,0.144,0.502,0.37C33.718,24.804,33.563,25.098,33.286,25.183z M34.043,23.489
		c-0.221,0-0.427-0.145-0.496-0.369c-0.086-0.277,0.069-0.571,0.347-0.653c0.053-0.017,0.106-0.025,0.159-0.025
		c0.221,0,0.426,0.145,0.496,0.369c0.086,0.278-0.069,0.57-0.347,0.652C34.149,23.481,34.096,23.489,34.043,23.489z M35.029,24.637
		c-0.052,0.016-0.104,0.024-0.156,0.024c-0.223,0-0.43-0.144-0.499-0.369c-0.086-0.277,0.069-0.571,0.345-0.655
		c0.052-0.016,0.105-0.024,0.157-0.024c0.223,0,0.43,0.145,0.5,0.369C35.461,24.259,35.306,24.553,35.029,24.637z M36.259,23.759
		c-0.051,0.016-0.103,0.023-0.154,0.023c-0.224,0-0.432-0.144-0.502-0.37c-0.086-0.277,0.069-0.572,0.346-0.653
		c0.052-0.017,0.106-0.025,0.158-0.025c0.222,0,0.428,0.144,0.497,0.369C36.691,23.379,36.536,23.673,36.259,23.759z M30.383,28.154
		c-0.233-0.226-0.466-0.449-0.7-0.67l9.768-2.349c0.208,0.23,0.415,0.46,0.619,0.689C40.07,25.824,30.383,28.154,30.383,28.154z
		 M22.572,11.895C18.39,9.65,14.67,8.29,12.172,8.269c-0.046-0.001-0.092-0.001-0.138-0.001c-4.905,0-7.127,2.273-7.955,3.463
		c2.594,0.931,6.367,2.483,10.673,4.872L22.572,11.895z M20.032,11.307c0.078-0.042,0.163-0.062,0.246-0.062
		c0.187,0,0.369,0.101,0.463,0.278c0.136,0.256,0.04,0.573-0.216,0.709c-0.078,0.042-0.163,0.062-0.246,0.062
		c-0.188,0-0.369-0.101-0.463-0.278C19.679,11.761,19.776,11.444,20.032,11.307z M19.05,12.365c0.079-0.042,0.163-0.062,0.246-0.062
		c0.188,0,0.369,0.101,0.463,0.278c0.136,0.255,0.039,0.573-0.216,0.709c-0.079,0.042-0.164,0.062-0.247,0.062
		c-0.187,0-0.368-0.101-0.462-0.278C18.698,12.819,18.794,12.502,19.05,12.365z M18.017,11.371c0.078-0.042,0.163-0.062,0.246-0.062
		c0.187,0,0.369,0.101,0.463,0.278c0.136,0.256,0.04,0.573-0.216,0.709c-0.079,0.042-0.163,0.062-0.246,0.062
		c-0.188,0-0.369-0.101-0.463-0.278C17.665,11.825,17.761,11.508,18.017,11.371z M17.507,13.188
		c0.079-0.042,0.164-0.062,0.247-0.062c0.187,0,0.368,0.101,0.462,0.278c0.136,0.256,0.04,0.573-0.216,0.71
		c-0.078,0.042-0.163,0.061-0.246,0.061c-0.188,0-0.369-0.101-0.464-0.277C17.156,13.641,17.252,13.324,17.507,13.188z
		 M16.405,12.23c0.079-0.042,0.163-0.062,0.246-0.062c0.188,0,0.369,0.101,0.463,0.278c0.136,0.256,0.039,0.573-0.216,0.709
		c-0.078,0.042-0.163,0.062-0.246,0.062c-0.188,0-0.369-0.101-0.463-0.278C16.053,12.684,16.15,12.367,16.405,12.23z M15.966,14.009
		c0.078-0.042,0.163-0.062,0.246-0.062c0.188,0,0.369,0.101,0.463,0.278c0.136,0.256,0.039,0.573-0.216,0.709
		c-0.079,0.042-0.163,0.062-0.247,0.062c-0.188,0-0.369-0.101-0.463-0.278C15.614,14.463,15.71,14.146,15.966,14.009z M14.793,13.09
		c0.078-0.042,0.163-0.062,0.246-0.062c0.187,0,0.368,0.1,0.463,0.277c0.136,0.256,0.04,0.573-0.216,0.71
		c-0.079,0.042-0.163,0.062-0.246,0.062c-0.187,0-0.369-0.101-0.463-0.278C14.441,13.544,14.537,13.226,14.793,13.09z
		 M13.674,14.874c-0.079,0.042-0.163,0.062-0.246,0.062c-0.187,0-0.369-0.101-0.463-0.278c-0.136-0.255-0.039-0.573,0.216-0.709
		c0.079-0.042,0.163-0.062,0.246-0.062c0.188,0,0.369,0.101,0.463,0.278C14.026,14.421,13.929,14.738,13.674,14.874z M14.207,15.542
		c-0.135-0.257-0.039-0.574,0.216-0.71c0.079-0.042,0.163-0.062,0.246-0.062c0.188,0,0.369,0.101,0.463,0.278
		c0.136,0.255,0.039,0.573-0.216,0.709c-0.078,0.042-0.163,0.062-0.246,0.062C14.482,15.819,14.301,15.718,14.207,15.542z
		 M40.693,26.53c2.507,2.876,4.596,5.629,5.573,7.34l-8.883,2.21c-2.006-2.663-4.128-5.069-6.3-7.238L40.693,26.53z M15.586,17.073
		l7.83-4.714c0.342,0.19,0.686,0.386,1.034,0.587l-7.841,4.721C16.265,17.464,15.924,17.266,15.586,17.073z M15.384,18.813
		C6.883,13.822,0.131,12.103,0,12.072l0.25-0.807c0.135,0.033,7.151,1.785,15.924,6.963C15.907,18.424,15.643,18.618,15.384,18.813z
		 M41.32,43.33l-0.824,0.474c-4.397-7.642-9.843-13.563-15.3-18.108c0.29-0.161,0.585-0.321,0.881-0.48
		C31.519,29.78,36.933,35.706,41.32,43.33z M7.409,36.226c1.758-1.771,4.238-4.063,7.396-6.486l0.109-9.671
		c-3.553,2.777-6.153,5.483-7.16,7.665C5.814,31.937,6.674,34.824,7.409,36.226z M13.993,29.202c-0.289,0-0.524-0.235-0.524-0.524
		c0-0.29,0.235-0.524,0.524-0.524c0.29,0,0.524,0.235,0.524,0.524C14.517,28.968,14.283,29.202,13.993,29.202z M13.993,27.455
		c-0.289,0-0.524-0.235-0.524-0.524s0.235-0.524,0.524-0.524c0.29,0,0.524,0.235,0.524,0.524S14.283,27.455,13.993,27.455z
		 M13.993,25.708c-0.289,0-0.524-0.235-0.524-0.524c0-0.29,0.235-0.524,0.524-0.524c0.29,0,0.524,0.235,0.524,0.524
		S14.283,25.708,13.993,25.708z M14.517,23.436c0,0.29-0.234,0.524-0.524,0.524c-0.289,0-0.524-0.235-0.524-0.524
		c0-0.29,0.235-0.525,0.524-0.525C14.283,22.911,14.517,23.146,14.517,23.436z M13.521,21.548c0.29,0,0.524,0.235,0.524,0.524
		c0,0.29-0.234,0.524-0.524,0.524c-0.289,0-0.524-0.234-0.524-0.524C12.997,21.782,13.232,21.548,13.521,21.548z M12.63,23.355
		c0.29,0,0.524,0.235,0.524,0.524c0,0.29-0.234,0.524-0.524,0.524c-0.289,0-0.524-0.235-0.524-0.524
		C12.105,23.59,12.34,23.355,12.63,23.355z M12.63,25.182c0.29,0,0.524,0.235,0.524,0.524S12.92,26.23,12.63,26.23
		c-0.289,0-0.524-0.235-0.524-0.524C12.105,25.416,12.34,25.182,12.63,25.182z M12.63,27.009c0.29,0,0.524,0.235,0.524,0.524
		c0,0.29-0.234,0.524-0.524,0.524c-0.289,0-0.524-0.235-0.524-0.524C12.105,27.243,12.34,27.009,12.63,27.009z M12.63,28.835
		c0.29,0,0.524,0.235,0.524,0.524s-0.234,0.524-0.524,0.524c-0.289,0-0.524-0.235-0.524-0.524
		C12.105,29.07,12.34,28.835,12.63,28.835z"/>
</g>
</svg>