<?xml version="1.0" encoding="iso-8859-1"?>
<!-- Uploaded to: SVG Repo, www.svgrepo.com, Generator: SVG Repo Mixer Tools -->
<svg fill="#000000" height="800px" width="800px" version="1.1" id="Layer_1" xmlns="http://www.w3.org/2000/svg" xmlns:xlink="http://www.w3.org/1999/xlink" 
	 viewBox="0 0 512 512" xml:space="preserve">
<g>
	<g>
		<path d="M294.957,339.478c40.316,0,74.041-28.724,81.796-66.783h35.073c27.619,0,50.087-22.468,50.087-50.087v-18.893
			C490.671,196.274,512,170.183,512,139.13c0-39.043-33.662-70.289-73.306-66.464C422.672,32.952,379.019,5.565,328.348,5.565
			c-50.671,0-94.324,27.386-110.346,67.101c-39.632-3.823-73.306,27.41-73.306,66.464c0,36.826,29.956,66.783,66.783,66.783h66.783
			v16.696c0,9.206-7.49,16.696-16.696,16.696c-46.505,0-86.63,27.366-105.435,66.783H128c-9.206,0-16.696-7.49-16.696-16.696
			c27.619,0,50.087-22.468,50.087-50.087c0-22.565-15-41.685-35.544-47.934c-6.25-20.543-25.37-35.544-47.934-35.544
			c-24.117,0-43.669,16.853-48.75,38.521C11.717,202.565,0,219.924,0,239.304c0,27.619,22.468,50.087,50.087,50.087h27.826
			c0,27.619,22.468,50.087,50.087,50.087h18.03c-0.788,5.468-1.335,11.012-1.335,16.696v16.696H61.217
			c-9.217,0-16.696,7.479-16.696,16.696c0,64.445,52.424,116.87,116.87,116.87h200.348c64.445,0,116.87-52.424,116.87-116.87
			c0-9.217-7.479-16.696-16.696-16.696h-83.478v-16.696c0-9.217-7.479-16.696-16.696-16.696s-16.696,7.479-16.696,16.696v16.696
			h-66.783v-16.696C278.261,346.968,285.751,339.478,294.957,339.478z M378.435,205.913h50.087v16.696
			c0,9.206-7.49,16.696-16.696,16.696h-33.391V205.913z M244.87,356.174v16.696h-66.783v-16.696
			c0-46.032,37.446-83.478,83.478-83.478c27.619,0,50.087-22.468,50.087-50.087v-16.696h33.391V256
			c0,27.619-22.468,50.087-50.087,50.087C267.337,306.087,244.87,328.555,244.87,356.174z"/>
	</g>
</g>
</svg>