<?xml version="1.0" encoding="iso-8859-1"?>
<!-- Uploaded to: SVG Repo, www.svgrepo.com, Generator: SVG Repo Mixer Tools -->
<svg height="800px" width="800px" version="1.1" id="Capa_1" xmlns="http://www.w3.org/2000/svg" xmlns:xlink="http://www.w3.org/1999/xlink" 
	 viewBox="0 0 33.945 33.945" xml:space="preserve">
<g>
	<path style="fill:#030104;" d="M24.153,1.608c-0.162-0.075-0.316-0.16-0.479-0.23c-0.168-0.072-0.342-0.131-0.512-0.198
		c-0.768,0.486-1.479,1.02-1.979,1.542c-1.193,1.252-1.136,2.776-0.535,2.827c0.363,0.031,0.73,0.065,1.075,0.184
		c0.774,0.267,1.481,0.71,2.062,1.289c2.114,2.114,2.114,5.542,0,7.657c-1.02,1.02-2.479,1.535-3.924,1.535
		c-1.119,0-2.228-0.308-3.117-0.929c-0.74-0.517-1.261-1.143-1.603-1.836c-0.715-1.453-0.639-3.206-0.123-4.89
		c0.955-3.117,2.579-6.221,5.446-7.955c0.1-0.061,0.207-0.105,0.309-0.162c-0.216-0.049-0.431-0.098-0.65-0.139
		c-0.209-0.039-0.424-0.066-0.637-0.097C18.664,0.084,17.83,0,16.973,0C7.6,0,0.001,7.598,0.001,16.972
		c0,1.643,0.245,3.225,0.68,4.725c0.048,0.166,0.093,0.332,0.146,0.496c0.055,0.168,0.122,0.33,0.182,0.498
		c0.91,0.217,1.829,0.364,2.591,0.364c0.046,0,0.091,0,0.136-0.002c1.729-0.04,2.767-1.159,2.377-1.621
		c-0.235-0.278-0.471-0.562-0.63-0.89c-0.359-0.736-0.546-1.551-0.546-2.369c0-2.99,2.424-5.414,5.414-5.414
		c2.558,0,4.973,2.103,5.407,4.551c0.138,0.777,0.09,1.49-0.088,2.146c-0.026,0.096-0.046,0.193-0.077,0.285
		c-0.122,0.357-0.288,0.693-0.487,1.012c-0.655,1.052-1.69,1.898-2.884,2.533c-2.195,1.166-4.659,2.051-7.147,2.051
		c-0.776,0-1.555-0.086-2.329-0.277c-0.28-0.068-0.552-0.163-0.822-0.258c0.099,0.189,0.202,0.375,0.307,0.559
		c0.109,0.191,0.226,0.377,0.342,0.563c2.996,4.81,8.316,8.021,14.399,8.021c2.775,0,5.389-0.681,7.701-1.861
		c0.177-0.09,0.355-0.176,0.529-0.272c0.179-0.1,0.35-0.213,0.524-0.319c0.187-0.856,0.306-1.705,0.289-2.405
		c-0.035-1.484-0.864-2.459-1.39-2.459c-0.088,0-0.166,0.026-0.231,0.082c-0.278,0.235-0.562,0.471-0.89,0.63
		c-0.737,0.357-1.551,0.546-2.37,0.546c-2.99,0-5.414-2.424-5.414-5.414c0-0.487,0.097-0.964,0.238-1.429
		c0.189-0.328,0.351-0.666,0.47-1.016c0.025-0.074,0.038-0.149,0.06-0.223c0.816-1.376,2.196-2.429,3.719-2.722
		c0.271-0.013,0.539-0.04,0.803-0.084c0.059-0.002,0.123-0.016,0.181-0.016c0.537,0,1.041,0.088,1.513,0.248
		c1.533,0.522,2.719,1.815,3.545,3.371c1.484,2.796,2.498,6.028,1.824,9.192c0.185-0.164,0.364-0.329,0.541-0.496
		c0.17-0.16,0.34-0.317,0.502-0.483c2.983-3.059,4.828-7.234,4.828-11.844C33.946,10.166,29.933,4.314,24.153,1.608z"/>
</g>
</svg>