<?xml version="1.0" encoding="iso-8859-1"?>
<!-- Uploaded to: SVG Repo, www.svgrepo.com, Generator: SVG Repo Mixer Tools -->
<svg height="800px" width="800px" version="1.1" id="Capa_1" xmlns="http://www.w3.org/2000/svg" xmlns:xlink="http://www.w3.org/1999/xlink" 
	 viewBox="0 0 45.302 45.302" xml:space="preserve">
<g>
	<path style="fill:#1D1C1A;" d="M22.651,0C10.161,0,0,10.161,0,22.651s10.161,22.651,22.651,22.651s22.651-10.161,22.651-22.651
		S35.141,0,22.651,0z M42.86,26.893c-0.094,0.448-0.218,0.884-0.34,1.321c-0.196-0.058-0.394-0.111-0.596-0.154
		c-0.507-0.107-1.032-0.165-1.57-0.165c-0.72,0-1.414,0.107-2.074,0.295c-0.512,0.146-1.004,0.341-1.466,0.586
		c-0.598,0.317-1.146,0.713-1.636,1.172c-1.291,1.207-2.165,2.853-2.369,4.702c-0.03,0.276-0.049,0.555-0.049,0.839
		c0,0.4,0.04,0.789,0.1,1.172c0.08,0.515,0.211,1.012,0.39,1.487c0.223,0.594,0.514,1.153,0.87,1.666
		c-0.379,0.254-0.776,0.484-1.172,0.713c-0.393,0.227-0.796,0.438-1.205,0.64c-0.275-0.415-0.514-0.855-0.727-1.309
		c-0.194-0.413-0.371-0.836-0.51-1.277c-0.146-0.465-0.249-0.947-0.329-1.437c-0.088-0.54-0.145-1.09-0.145-1.654
		c0-0.635,0.066-1.254,0.176-1.857c0.362-1.981,1.291-3.762,2.613-5.176c0.802-0.859,1.745-1.581,2.798-2.127
		c0.428-0.222,0.875-0.412,1.335-0.573c0.437-0.153,0.883-0.287,1.344-0.381c0.664-0.135,1.352-0.207,2.055-0.207
		c0.538,0,1.062,0.054,1.578,0.134c0.389,0.06,0.77,0.14,1.144,0.242C43.012,25.995,42.953,26.45,42.86,26.893z M41.417,31.22
		c-1.217,2.654-2.977,5.002-5.141,6.909c-0.475-0.732-0.756-1.598-0.777-2.53c-0.001-0.038-0.011-0.074-0.011-0.112
		c0-1.645,0.822-3.093,2.072-3.974c0.792-0.558,1.752-0.892,2.794-0.892c0.408,0,0.798,0.065,1.177,0.16
		c0.029,0.007,0.057,0.019,0.086,0.027C41.555,30.949,41.481,31.081,41.417,31.22z M41.576,22.593
		c-0.403-0.038-0.81-0.062-1.223-0.062c-0.85,0-1.679,0.088-2.484,0.245c-0.449,0.087-0.89,0.195-1.321,0.327
		c-0.439,0.135-0.868,0.294-1.287,0.473c-0.857,0.368-1.66,0.832-2.41,1.367c-0.439,0.313-0.855,0.655-1.251,1.019
		c-0.496,0.456-0.96,0.946-1.38,1.474c-1.091,1.37-1.903,2.964-2.369,4.702c-0.176,0.656-0.316,1.327-0.387,2.02
		c-0.045,0.437-0.068,0.881-0.068,1.329c0,0.091,0.012,0.18,0.014,0.27c0.02,0.946,0.144,1.865,0.357,2.751
		c0.108,0.449,0.239,0.887,0.393,1.317c0.153,0.43,0.328,0.847,0.524,1.255c0.183,0.381,0.384,0.75,0.602,1.109
		c-0.445,0.151-0.897,0.282-1.355,0.404c-0.457,0.121-0.914,0.239-1.383,0.329c-0.179-0.331-0.336-0.674-0.491-1.018
		c-0.187-0.416-0.354-0.842-0.505-1.276c-0.15-0.432-0.28-0.872-0.393-1.319c-0.173-0.688-0.314-1.388-0.392-2.108
		c-0.018-0.162-0.024-0.327-0.036-0.49c-0.031-0.405-0.062-0.811-0.062-1.224c0-0.056,0.008-0.11,0.008-0.165
		c0.005-0.481,0.025-0.958,0.072-1.427c0.004-0.041,0.013-0.081,0.018-0.121c0.121-1.107,0.362-2.176,0.702-3.202
		c0.487-1.471,1.186-2.844,2.061-4.086c0.655-0.931,1.412-1.781,2.249-2.548c0.354-0.324,0.721-0.632,1.104-0.923
		c0.365-0.278,0.741-0.541,1.13-0.786c0.74-0.467,1.515-0.884,2.332-1.224c0.421-0.175,0.85-0.334,1.289-0.473
		c0.437-0.138,0.885-0.251,1.338-0.352c1.09-0.241,2.219-0.377,3.381-0.377c0.135,0,0.265,0.017,0.399,0.02
		c0.807,0.02,1.597,0.101,2.37,0.24c0.058,0.46,0.093,0.927,0.12,1.396c0.023,0.397,0.06,0.79,0.06,1.193
		c0,0.077-0.011,0.151-0.012,0.228C42.731,22.749,42.161,22.648,41.576,22.593z M3.762,30.966c0.032-0.013,0.067-0.019,0.1-0.031
		c0.523-0.192,1.081-0.313,1.671-0.313c0.769,0,1.487,0.195,2.134,0.513c1.612,0.793,2.732,2.435,2.732,4.353
		c0,0.254-0.037,0.498-0.075,0.741c-0.128,0.829-0.462,1.581-0.952,2.216c-2.264-1.907-4.1-4.296-5.38-7
		C3.917,31.284,3.834,31.128,3.762,30.966z M12.497,38.506c0.196-0.451,0.35-0.925,0.456-1.417c0.112-0.517,0.174-1.052,0.174-1.602
		c0-0.059-0.007-0.116-0.009-0.174c-0.055-2.432-1.258-4.58-3.089-5.931c-0.474-0.35-0.984-0.652-1.533-0.885
		c-0.456-0.194-0.934-0.345-1.431-0.447c-0.495-0.102-1.008-0.156-1.532-0.156c-0.728,0-1.43,0.109-2.097,0.301
		C3.23,28.254,3.029,28.324,2.83,28.4c-0.127-0.437-0.244-0.879-0.342-1.328C2.39,26.624,2.32,26.168,2.252,25.71
		c0.38-0.128,0.766-0.24,1.164-0.324c0.684-0.143,1.391-0.22,2.117-0.22c0.519,0,1.026,0.051,1.525,0.125
		c0.46,0.069,0.911,0.162,1.349,0.29c0.461,0.134,0.907,0.299,1.339,0.493c0.99,0.445,1.895,1.043,2.691,1.762
		c1.803,1.628,3.031,3.876,3.336,6.41c0.049,0.407,0.082,0.82,0.082,1.24c0,0.679-0.07,1.342-0.196,1.985
		c-0.092,0.471-0.222,0.927-0.376,1.372c-0.15,0.435-0.329,0.856-0.533,1.263c-0.222,0.442-0.471,0.867-0.752,1.269
		c-0.419-0.194-0.839-0.386-1.242-0.607c-0.402-0.22-0.787-0.467-1.172-0.713C11.945,39.58,12.255,39.062,12.497,38.506
		L12.497,38.506z M17.122,41.247c0.202-0.405,0.382-0.821,0.541-1.249c0.159-0.425,0.295-0.86,0.408-1.305
		c0.221-0.864,0.354-1.761,0.391-2.684c0.007-0.174,0.026-0.346,0.026-0.522c0-0.337-0.025-0.668-0.051-0.998
		c-0.047-0.608-0.131-1.205-0.259-1.787c-0.496-2.255-1.585-4.284-3.089-5.932c-0.407-0.446-0.835-0.873-1.3-1.259
		c-0.393-0.326-0.81-0.622-1.24-0.9c-0.754-0.488-1.563-0.896-2.413-1.221c-0.424-0.162-0.858-0.3-1.301-0.418
		c-0.436-0.115-0.881-0.207-1.334-0.277c-0.644-0.099-1.298-0.166-1.97-0.166c-0.604,0-1.194,0.056-1.776,0.136
		c-0.593,0.082-1.173,0.201-1.738,0.361c-0.002-0.127-0.019-0.249-0.019-0.376c0-0.351,0.035-0.694,0.053-1.041
		c0.024-0.482,0.053-0.961,0.11-1.434c0.788-0.173,1.6-0.277,2.428-0.327C4.903,19.829,5.214,19.8,5.532,19.8
		c0.99,0,1.955,0.103,2.894,0.279c0.459,0.086,0.909,0.196,1.353,0.321c0.445,0.125,0.88,0.272,1.307,0.435
		c0.827,0.315,1.619,0.695,2.373,1.139c0.395,0.232,0.779,0.479,1.151,0.744c0.38,0.271,0.748,0.555,1.101,0.857
		c0.799,0.684,1.525,1.448,2.173,2.277c1.176,1.505,2.09,3.223,2.657,5.095c0.275,0.909,0.471,1.853,0.577,2.823
		c-0.007,0.083-0.006,0.168-0.013,0.251c-0.034,0.455-0.067,0.91-0.069,1.373c0,0.03-0.005,0.059-0.005,0.09
		c0,0.438,0.037,0.866,0.065,1.297c0.009,0.138,0.009,0.279,0.021,0.417c-0.082,0.747-0.229,1.474-0.412,2.186
		c-0.115,0.447-0.248,0.887-0.401,1.318c-0.157,0.442-0.33,0.874-0.524,1.297c-0.156,0.339-0.311,0.677-0.49,1.003
		c-0.478-0.079-0.95-0.17-1.416-0.281c-0.464-0.111-0.93-0.217-1.382-0.359C16.721,42.003,16.93,41.631,17.122,41.247z
		 M42.279,16.264c-0.634-0.063-1.275-0.097-1.926-0.097c-0.468,0-0.927,0.037-1.388,0.07c-3.43-5.381-9.436-8.96-16.29-8.96
		c-6.843,0-12.841,3.568-16.274,8.934c-0.29-0.013-0.576-0.044-0.869-0.044c-0.864,0-1.709,0.076-2.543,0.186
		C5.66,8.039,13.46,2.001,22.65,2.001C31.807,2,39.581,7.996,42.279,16.264z M33.637,17.39c-0.457,0.17-0.905,0.352-1.345,0.555
		c-2.373-2.635-5.799-4.304-9.617-4.304c-3.73,0-7.088,1.594-9.454,4.125c-0.448-0.195-0.909-0.362-1.374-0.522
		c-0.463-0.16-0.935-0.3-1.414-0.426c2.877-3.594,7.291-5.905,12.242-5.905c5.002,0,9.454,2.362,12.328,6.02
		C34.54,17.067,34.087,17.223,33.637,17.39z M28.773,20.048c-0.369,0.277-0.73,0.563-1.078,0.865
		c-1.34-1.184-3.094-1.909-5.019-1.909c-1.795,0-3.443,0.629-4.744,1.673c-0.357-0.299-0.733-0.575-1.111-0.849
		c-0.378-0.273-0.767-0.53-1.165-0.776c1.844-1.717,4.308-2.777,7.02-2.777c2.816,0,5.37,1.136,7.235,2.971
		C29.52,19.499,29.144,19.769,28.773,20.048z M22.943,27.152c-0.797-1.662-1.822-3.19-3.039-4.547
		c0.787-0.548,1.74-0.874,2.772-0.874c1.174,0,2.237,0.433,3.078,1.126C24.634,24.15,23.691,25.593,22.943,27.152z"/>
</g>
</svg>