<?xml version="1.0" encoding="iso-8859-1"?>
<!-- Uploaded to: SVG Repo, www.svgrepo.com, Generator: SVG Repo Mixer Tools -->
<svg fill="#000000" height="800px" width="800px" version="1.1" id="Layer_1" xmlns="http://www.w3.org/2000/svg" xmlns:xlink="http://www.w3.org/1999/xlink" 
	 viewBox="0 0 511.999 511.999" xml:space="preserve">
<g>
	<g>
		<path d="M327.096,274.046l25.94-25.94l11.853,11.851c3.274,3.274,7.562,4.91,11.849,4.91c4.287,0,8.576-1.637,11.849-4.91
			c6.546-6.546,6.546-17.157,0-23.698l-11.853-11.851L507.089,94.054c6.547-6.54,6.547-17.157,0-23.698l-47.402-47.402
			c-6.546-6.546-17.152-6.546-23.698,0L305.633,153.31l-11.849-11.849c-6.546-6.546-17.152-6.546-23.698,0
			c-6.546,6.546-6.546,17.157,0,23.698l11.85,11.849l-25.937,25.938l-25.936-25.936l11.853-11.851c6.546-6.54,6.546-17.152,0-23.698
			c-6.546-6.546-17.152-6.546-23.698,0l-11.853,11.851L76.003,22.953c-6.285-6.285-17.414-6.285-23.698,0L4.91,70.356
			c-6.546,6.546-6.546,17.157,0,23.698l47.389,47.391c0,0,0.004,0.008,0.008,0.011c0,0,0.008,0.004,0.011,0.008l47.388,47.389
			l0.003,0.006c0.001,0.001,0.004,0.002,0.004,0.002l35.549,35.55l-11.85,11.849c-6.546,6.54-6.546,17.152,0,23.698
			c3.274,3.274,7.562,4.91,11.849,4.91s8.576-1.637,11.849-4.91l11.849-11.849l25.94,25.94L4.91,454.039
			c-3.732,3.732-5.488,9.002-4.741,14.227c0.747,5.225,3.917,9.793,8.548,12.323c16.443,8.996,34.538,13.366,52.546,13.366
			c28.603,0,56.959-11.036,78.018-32.095l116.718-116.718l116.713,116.718c21.058,21.058,49.42,32.095,78.023,32.095
			c18.003,0,36.109-4.375,52.546-13.366c4.632-2.532,7.801-7.098,8.548-12.323c0.747-5.225-1.009-10.497-4.741-14.227
			L327.096,274.046z M447.838,58.5l23.704,23.704l-23.704,23.704l-23.704-23.704L447.838,58.5z M64.157,105.906L40.457,82.205
			l23.698-23.698l23.702,23.701L64.157,105.906z M182.658,224.412l23.705-23.703l25.936,25.936l-23.704,23.704L182.658,224.412z
			 M115.583,438.164c-18.123,18.123-44.053,25.532-68.4,21.003L220.44,285.902c0.001-0.001,0.004-0.002,0.004-0.002l0.004-0.007
			l47.387-47.389c0,0,0.008-0.004,0.011-0.008c0,0,0.004-0.008,0.008-0.011l37.777-37.778l23.704,23.704L115.583,438.164z
			 M396.409,438.164L279.698,321.446l23.701-23.701l161.417,161.421C440.441,463.701,414.538,456.281,396.409,438.164z"/>
	</g>
</g>
</svg>