<?xml version="1.0" encoding="iso-8859-1"?>
<!-- Uploaded to: SVG Repo, www.svgrepo.com, Generator: SVG Repo Mixer Tools -->
<svg height="800px" width="800px" version="1.1" id="Capa_1" xmlns="http://www.w3.org/2000/svg" xmlns:xlink="http://www.w3.org/1999/xlink" 
	 viewBox="0 0 44.092 44.092" xml:space="preserve">
<g>
	<path style="fill:#1D1C1A;" d="M22.046,0C9.89,0,0,9.89,0,22.046s9.89,22.046,22.046,22.046s22.046-9.89,22.046-22.046
		S34.202,0,22.046,0z M22.046,33.819c-8.979,0-16.282-7.304-16.282-16.282S13.068,1.254,22.046,1.254s16.281,7.304,16.281,16.282
		S31.024,33.819,22.046,33.819z M31.704,14.141c0,5.326-4.333,9.659-9.658,9.659c-5.326,0-9.659-4.333-9.659-9.659
		s4.333-9.659,9.659-9.659C27.372,4.482,31.705,8.815,31.704,14.141z"/>
</g>
</svg>