<!DOCTYPE svg PUBLIC "-//W3C//DTD SVG 1.1//EN" "http://www.w3.org/Graphics/SVG/1.1/DTD/svg11.dtd">
<!-- Uploaded to: SVG Repo, www.svgrepo.com, Transformed by: SVG Repo Mixer Tools -->
<svg width="800px" height="800px" viewBox="0 0 20 20" xmlns="http://www.w3.org/2000/svg" fill="none">
<g id="SVGRepo_bgCarrier" stroke-width="0"/>
<g id="SVGRepo_tracerCarrier" stroke-linecap="round" stroke-linejoin="round"/>
<g id="SVGRepo_iconCarrier"> <path fill="#C9C6BC" fill-rule="evenodd" d="M2 1a1 1 0 00-.748.336l-.245.782v.008l.004.026.012.102.043.39c.037.336.087.814.14 1.38.11 1.135.233 2.616.295 4.02a1 1 0 001.998-.088 84.586 84.586 0 00-.301-4.122c-.03-.306-.057-.587-.083-.834H8a1 1 0 000-2H2zm10.5 0a1 1 0 100 2h4.4l-.073.845c-.098 1.15-.211 2.664-.275 4.11a1 1 0 101.998.09c.062-1.41.174-2.895.27-4.032a132.912 132.912 0 01.161-1.774l.01-.103.003-.026v-.008A1 1 0 0018 1h-5.5zM3.499 12.044a1 1 0 10-1.998-.088 82.599 82.599 0 01-.294 4.02 105.52 105.52 0 01-.184 1.77l-.012.102-.003.026v.006l-.001.002A1 1 0 002 19h6a1 1 0 100-2H3.115a84.905 84.905 0 00.384-4.956zm15.05-.088a1 1 0 10-1.997.088A107.505 107.505 0 0016.9 17h-4.4a1 1 0 100 2H18a1 1 0 00.995-1.102v-.002l-.001-.006-.003-.026-.01-.103-.038-.391a133 133 0 01-.124-1.383 105.732 105.732 0 01-.27-4.031zM7.01 8a1 1 0 000-2H7a1 1 0 100 2h.01zm6 0a1 1 0 100-2H13a1 1 0 100 2h.01zm-6.648 6.27a1 1 0 01-.132-1.408l.725.6-.725-.6v-.001l.002-.001.002-.003.007-.008.018-.021c.015-.017.034-.04.059-.066a6.152 6.152 0 01.946-.828C7.886 11.494 8.837 11 10 11c1.163 0 2.114.493 2.736.934a6.156 6.156 0 01.946.828l.059.066.018.021.007.008.002.003h.001v.002l-.695.577.696-.577a1 1 0 01-1.537 1.28l-4.562.1 4.562-.1-.003-.004a3.236 3.236 0 00-.15-.157 4.146 4.146 0 00-.498-.415C11.143 13.256 10.594 13 10 13c-.594 0-1.143.257-1.582.566a4.148 4.148 0 00-.648.572l-.003.004a1.01 1.01 0 01-.096.1l-1.309.028zm0 0l1.31-.028a1 1 0 01-1.31.028z"/> </g>
</svg>