<!DOCTYPE svg PUBLIC "-//W3C//DTD SVG 1.1//EN" "http://www.w3.org/Graphics/SVG/1.1/DTD/svg11.dtd">
<!-- Uploaded to: SVG Repo, www.svgrepo.com, Transformed by: SVG Repo Mixer Tools -->
<svg fill="#ebdbb2" height="800px" width="800px" version="1.1" id="Filled_Icons" xmlns="http://www.w3.org/2000/svg" xmlns:xlink="http://www.w3.org/1999/xlink" x="0px" y="0px" viewBox="0 0 24 24" enable-background="new 0 0 24 24" xml:space="preserve">
<g id="SVGRepo_bgCarrier" stroke-width="0"/>
<g id="SVGRepo_tracerCarrier" stroke-linecap="round" stroke-linejoin="round"/>
<g id="SVGRepo_iconCarrier"> <g id="Volume-Filled"> <path d="M15,21v-2c3.86,0,7-3.14,7-7s-3.14-7-7-7V3c4.96,0,9,4.04,9,9S19.96,21,15,21z M15,17v-2c1.65,0,3-1.35,3-3s-1.35-3-3-3V7 c2.76,0,5,2.24,5,5S17.76,17,15,17z M1,12v4h5l6,5V3L6,8H1V12"/> </g> </g>
</svg>